<svg xmlns="http://www.w3.org/2000/svg" xmlns:xlink="http://www.w3.org/1999/xlink" width="500" zoomAndPan="magnify" viewBox="0 0 375 374.999991" height="500" preserveAspectRatio="xMidYMid meet" version="1.0"><defs><clipPath id="60b926608e"><path d="M 57 57 L 318 57 L 318 318 L 57 318 Z M 57 57 " clip-rule="nonzero"/></clipPath><clipPath id="ec3cfc3584"><path d="M 371.363281 187.496094 L 187.339844 371.523438 L 3.316406 187.496094 L 187.339844 3.472656 Z M 371.363281 187.496094 " clip-rule="nonzero"/></clipPath><clipPath id="2ebac6112f"><path d="M 371.363281 187.496094 L 187.339844 371.523438 L 3.316406 187.496094 L 187.339844 3.472656 Z M 371.363281 187.496094 " clip-rule="nonzero"/></clipPath><clipPath id="532ab00f6e"><path d="M 371.363281 187.496094 L 187.339844 371.523438 L 3.316406 187.496094 L 187.339844 3.472656 Z M 371.363281 187.496094 " clip-rule="nonzero"/></clipPath></defs><g clip-path="url(#60b926608e)"><g clip-path="url(#ec3cfc3584)"><g clip-path="url(#2ebac6112f)"><g clip-path="url(#532ab00f6e)"><path fill="#000000" d="M 279.351562 279.507812 C 330.171875 228.691406 330.171875 146.304688 279.351562 95.484375 C 228.535156 44.667969 146.144531 44.667969 95.328125 95.484375 C 44.507812 146.304688 44.507812 228.691406 95.328125 279.507812 C 146.144531 330.328125 228.535156 330.328125 279.351562 279.507812 Z M 141.332031 215.101562 L 192.730469 163.703125 L 163.546875 163.703125 C 156.367188 163.703125 150.535156 157.871094 150.535156 150.691406 C 150.535156 143.515625 156.367188 137.683594 163.546875 137.683594 L 224.144531 137.683594 C 231.339844 137.683594 237.164062 143.507812 237.15625 150.691406 L 237.15625 211.292969 C 237.15625 218.46875 231.320312 224.300781 224.144531 224.300781 C 216.96875 224.300781 211.132812 218.46875 211.132812 211.292969 L 211.132812 182.105469 L 159.734375 233.503906 C 154.65625 238.582031 146.414062 238.582031 141.332031 233.503906 C 136.253906 228.425781 136.253906 220.179688 141.332031 215.101562 Z M 141.332031 215.101562 " fill-opacity="1" fill-rule="nonzero"/></g></g></g></g></svg>