<svg xmlns="http://www.w3.org/2000/svg" xmlns:xlink="http://www.w3.org/1999/xlink" width="500" zoomAndPan="magnify" viewBox="0 0 375 374.999991" height="500" preserveAspectRatio="xMidYMid meet" version="1.0"><defs><clipPath id="6d2d39d7ce"><path d="M 57 57 L 318 57 L 318 318 L 57 318 Z M 57 57 " clip-rule="nonzero"/></clipPath><clipPath id="2a0c95ae67"><path d="M 3.628906 187.496094 L 187.65625 3.472656 L 371.679688 187.496094 L 187.65625 371.523438 Z M 3.628906 187.496094 " clip-rule="nonzero"/></clipPath><clipPath id="4c2254697e"><path d="M 3.628906 187.496094 L 187.65625 3.472656 L 371.679688 187.496094 L 187.65625 371.523438 Z M 3.628906 187.496094 " clip-rule="nonzero"/></clipPath><clipPath id="14be14a7dc"><path d="M 3.628906 187.496094 L 187.65625 3.472656 L 371.679688 187.496094 L 187.65625 371.523438 Z M 3.628906 187.496094 " clip-rule="nonzero"/></clipPath></defs><g clip-path="url(#6d2d39d7ce)"><g clip-path="url(#2a0c95ae67)"><g clip-path="url(#4c2254697e)"><g clip-path="url(#14be14a7dc)"><path fill="#000000" d="M 95.640625 95.484375 C 44.824219 146.304688 44.824219 228.691406 95.640625 279.507812 C 146.460938 330.328125 228.847656 330.328125 279.667969 279.507812 C 330.484375 228.691406 330.484375 146.304688 279.667969 95.484375 C 228.847656 44.667969 146.460938 44.667969 95.640625 95.484375 Z M 233.660156 159.894531 L 182.261719 211.292969 L 211.449219 211.292969 C 218.625 211.292969 224.460938 217.125 224.460938 224.300781 C 224.460938 231.480469 218.625 237.3125 211.449219 237.3125 L 150.851562 237.3125 C 143.65625 237.3125 137.832031 231.488281 137.839844 224.300781 L 137.839844 163.703125 C 137.839844 156.527344 143.671875 150.691406 150.851562 150.691406 C 158.027344 150.691406 163.859375 156.527344 163.859375 163.703125 L 163.859375 192.890625 L 215.257812 141.492188 C 220.335938 136.410156 228.582031 136.410156 233.660156 141.492188 C 238.738281 146.570312 238.738281 154.816406 233.660156 159.894531 Z M 233.660156 159.894531 " fill-opacity="1" fill-rule="nonzero"/></g></g></g></g></svg>