<svg xmlns="http://www.w3.org/2000/svg" xmlns:xlink="http://www.w3.org/1999/xlink" width="500" zoomAndPan="magnify" viewBox="0 0 375 374.999991" height="500" preserveAspectRatio="xMidYMid meet" version="1.0"><defs><clipPath id="36f218586b"><path d="M 57 57 L 318 57 L 318 318 L 57 318 Z M 57 57 " clip-rule="nonzero"/></clipPath><clipPath id="1916a856db"><path d="M 3.628906 187.496094 L 187.65625 3.472656 L 371.679688 187.496094 L 187.65625 371.523438 Z M 3.628906 187.496094 " clip-rule="nonzero"/></clipPath><clipPath id="3cf60a3613"><path d="M 3.628906 187.496094 L 187.65625 3.472656 L 371.679688 187.496094 L 187.65625 371.523438 Z M 3.628906 187.496094 " clip-rule="nonzero"/></clipPath></defs><g clip-path="url(#36f218586b)"><g clip-path="url(#1916a856db)"><g clip-path="url(#3cf60a3613)"><path fill="#fb4047" d="M 95.5625 95.5625 C 44.789062 146.339844 44.789062 228.65625 95.5625 279.429688 C 146.339844 330.207031 228.65625 330.207031 279.429688 279.429688 C 330.207031 228.65625 330.207031 146.339844 279.429688 95.5625 C 228.65625 44.789062 146.339844 44.789062 95.5625 95.5625 Z M 233.464844 159.917969 L 182.109375 211.269531 L 211.269531 211.269531 C 218.441406 211.269531 224.269531 217.101562 224.269531 224.269531 C 224.269531 231.441406 218.441406 237.269531 211.269531 237.269531 L 150.722656 237.269531 C 143.535156 237.269531 137.714844 231.449219 137.722656 224.269531 L 137.722656 163.722656 C 137.722656 156.550781 143.554688 150.722656 150.722656 150.722656 C 157.894531 150.722656 163.722656 156.550781 163.722656 163.722656 L 163.722656 192.882812 L 215.078125 141.53125 C 220.152344 136.457031 228.390625 136.457031 233.464844 141.53125 C 238.539062 146.605469 238.539062 154.84375 233.464844 159.917969 Z M 233.464844 159.917969 " fill-opacity="1" fill-rule="nonzero"/></g></g></g></svg>