<svg xmlns="http://www.w3.org/2000/svg" xmlns:xlink="http://www.w3.org/1999/xlink" width="500" zoomAndPan="magnify" viewBox="0 0 375 374.999991" height="500" preserveAspectRatio="xMidYMid meet" version="1.0"><defs><clipPath id="f7c15386fc"><path d="M 57 57 L 318 57 L 318 318 L 57 318 Z M 57 57 " clip-rule="nonzero"/></clipPath><clipPath id="68865d649d"><path d="M 371.363281 187.496094 L 187.339844 371.523438 L 3.316406 187.496094 L 187.339844 3.472656 Z M 371.363281 187.496094 " clip-rule="nonzero"/></clipPath><clipPath id="152481cb07"><path d="M 371.363281 187.496094 L 187.339844 371.523438 L 3.316406 187.496094 L 187.339844 3.472656 Z M 371.363281 187.496094 " clip-rule="nonzero"/></clipPath></defs><g clip-path="url(#f7c15386fc)"><g clip-path="url(#68865d649d)"><g clip-path="url(#152481cb07)"><path fill="#42f14e" d="M 279.429688 279.429688 C 330.207031 228.65625 330.207031 146.339844 279.429688 95.5625 C 228.65625 44.789062 146.339844 44.789062 95.5625 95.5625 C 44.789062 146.339844 44.789062 228.65625 95.5625 279.429688 C 146.339844 330.207031 228.65625 330.207031 279.429688 279.429688 Z M 141.53125 215.078125 L 192.882812 163.722656 L 163.722656 163.722656 C 156.550781 163.722656 150.722656 157.894531 150.722656 150.722656 C 150.722656 143.554688 156.550781 137.722656 163.722656 137.722656 L 224.269531 137.722656 C 231.460938 137.722656 237.28125 143.542969 237.269531 150.722656 L 237.269531 211.269531 C 237.269531 218.441406 231.441406 224.269531 224.269531 224.269531 C 217.101562 224.269531 211.269531 218.441406 211.269531 211.269531 L 211.269531 182.109375 L 159.917969 233.464844 C 154.84375 238.539062 146.605469 238.539062 141.53125 233.464844 C 136.457031 228.390625 136.457031 220.152344 141.53125 215.078125 Z M 141.53125 215.078125 " fill-opacity="1" fill-rule="nonzero"/></g></g></g></svg>